<?xml version="1.0" encoding="UTF-8" standalone="no"?>
<svg
   version="1.1"
   viewBox="0 0 489.33 289.33"
   id="svg1"
   sodipodi:docname="bonbon-line-handshake-1.svg"
   inkscape:version="1.3 (0e150ed6c4, 2023-07-21)"
   xmlns:inkscape="http://www.inkscape.org/namespaces/inkscape"
   xmlns:sodipodi="http://sodipodi.sourceforge.net/DTD/sodipodi-0.dtd"
   xmlns="http://www.w3.org/2000/svg"
   xmlns:svg="http://www.w3.org/2000/svg">
  <defs
     id="defs1" />
  <sodipodi:namedview
     id="namedview1"
     pagecolor="#ffffff"
     bordercolor="#000000"
     borderopacity="0.25"
     inkscape:showpageshadow="2"
     inkscape:pageopacity="0.0"
     inkscape:pagecheckerboard="0"
     inkscape:deskcolor="#d1d1d1"
     inkscape:zoom="2.4523328"
     inkscape:cx="244.66499"
     inkscape:cy="144.55623"
     inkscape:window-width="1920"
     inkscape:window-height="1011"
     inkscape:window-x="0"
     inkscape:window-y="0"
     inkscape:window-maximized="1"
     inkscape:current-layer="svg1" />
  <path
     d="m278.67 287.14c-1.8333-0.35669-6.6333-1.8253-10.667-3.2636-7.6324-2.7217-8.3914-3.0332-19.333-7.9331-16.403-7.3453-14.726-7.1593-21.643-2.4009-11.974 8.2386-21.479 9.4203-27.955 3.4758-1.612-1.4796-3.3096-4.4148-3.7726-6.5227-0.75671-3.4453-1.3829-3.8326-6.1967-3.8326-6.3211 0-12.071-3.6293-14.308-9.0321-1.2711-3.0688-2.385-3.7679-6.0032-3.7679-6.2393 0-11.075-3.6216-12.88-9.6468-1.3715-4.5778-2.1951-5.2967-7.7218-6.7412-8.1012-2.1173-11.585-5.1628-13.6-11.888-1.3298-4.4386-1.3159-5.9084 0.072-7.5807 0.94694-1.141 1.4862-2.2543 1.1984-2.4741-3.88-2.9624-9.4341-6.3877-9.7528-6.0148-0.22511 0.26333-1.1459 1.8927-2.0462 3.6209-2.2168 4.2552-5.5768 3.4099-21.483-5.4049-7.0172-3.8888-23.923-12.749-37.569-19.689s-24.462-13.183-24.035-13.873c0.42635-0.68984 0.09148-0.83171-0.74415-0.31526-1.7502 1.0817-23.725-9.146-32.778-15.256-4.3179-2.9141-6.115-5.035-6.115-7.2167 0-4.9984 10.843-29.785 20.095-45.937 4.7147-8.2308 9.3211-16.274 10.237-17.875 0.91541-1.6003 2.2654-2.7596 3-2.5763s1.3356-0.6459 1.3356-1.8427c0-2.3754 12.812-20.804 30.468-43.824 12.104-15.782 33.443-38 36.496-38 1.029 0 6.0331 2.4595 11.12 5.4656 27.933 16.506 33.916 20.272 33.916 21.349 0 0.652 0.75 1.1899 1.6667 1.1954 0.91667 0.0055 6.4667 2.7799 12.333 6.1654 11.569 6.6764 37.558 20.997 44 24.245 6.822 3.4399 15.333 9.6365 15.333 11.163 0 1.7404 4.02 4.9808 6.2532 5.0405 1.607 0.04295 24.781 10.472 31.286 14.08 4.0463 2.2441 8.0162 2.5321 9.861 0.71532 1.8865-1.8579 25.543-10.179 34.658-12.191 4.3681-0.96414 10.941-3.507 14.606-5.6509 9.1095-5.3284 43.668-22.196 46.799-22.842 1.3953-0.28784 4.3369-1.4135 6.5369-2.5014s7-3.2567 10.667-4.8194c3.6667-1.5627 7.5667-3.3122 8.6667-3.8878 1.8965-0.99234 6.3752-2.4206 31.333-9.9924 5.8667-1.7798 14.165-4.0095 18.442-4.9549l7.775-1.7189 3.7976 4.0634c13.96 14.937 27.325 46.092 32.778 76.409 2.9999 16.677 3.7711 66.106 1.3106 84-3.2283 23.478-1.8627 21.596-17.436 24.026-5.1333 0.80072-11.733 1.9732-14.667 2.6055s-9.8333 1.5192-15.333 1.9709-12.1 1.0823-14.667 1.4014c-2.5667 0.31913-8.5667 0.94245-13.333 1.3852-12.518 1.1626-17.35 1.7757-19.819 2.5146-1.1996 0.35904-5.6722 0.96771-9.9391 1.3526-9.3835 0.84644-10.242 1.3117-10.242 5.5503 0 1.8234-1.5203 4.8356-3.3785 6.6938l-3.3786 3.3786 4.0452 4.6072c5.0238 5.7217 5.4376 12.108 1.0452 16.129-3.9778 3.6408-8.0416 4.7585-16.585 4.5616l-7.0821-0.16327-0.0424 4.327c-0.0233 2.3799-0.77333 5.2848-1.6667 6.4554-4.6387 6.0786-17.409 8.0914-29.172 4.5982-8.529-2.5328-9.1194-2.5415-9.1194-0.13433 0 1.0591-1.3694 3.5177-3.0432 5.4636-2.6086 3.0327-4.2746 3.5997-11.667 3.9705-4.7429 0.2379-10.123 0.14072-11.957-0.21598zm10.667-5.6472c0-1.9295-3.1507-3.9429-6.6825-4.2704-9.718-0.90107-10.922 1.8731-1.6508 3.8053 8.6187 1.7962 8.3333 1.7803 8.3333 0.46512zm11.333-4.0302c0-2.4603-1.7004-3.7266-9.3333-6.9509-10.163-4.2929-11.037-4.6872-30.667-13.834-12.045-5.6128-13.462-5.9943-14.667-3.9483-0.73334 1.2457-2.6932 4.3317-4.3554 6.8578-1.6621 2.5261-2.7414 5.047-2.3984 5.602 0.34303 0.55502 7.2898 3.6214 15.437 6.8141 14.369 5.6308 14.925 5.739 18.535 3.6066 4.8633-2.8728 13.231-2.2509 15.587 1.1584 3.6388 5.2655 4.3935 5.7003 8.1504 4.6956 2.6692-0.71385 3.7108-1.8369 3.7108-4.0008zm-78.374-8.5728c9.669-5.8736 12.89-8.6514 16.922-14.592 5.1166-7.5397 5.3842-9.8235 1.5952-13.613-2.3816-2.3816-4.7941-3.3555-8.3122-3.3555-4.1599 0-5.7235 0.89088-9.7273 5.5424-6.9191 8.0385-16.214 16.891-20.437 19.465-7.4879 4.563-2.3824 12.851 7.2692 11.801 2.7148-0.29545 8.4255-2.657 12.691-5.2479zm3.3069-14.494c-4.0708-4.0708-0.69946-11.281 5.8491-12.51 5.572-1.0453 7.5509 0.42118 7.5509 5.5958 0 6.404-9.1756 11.138-13.4 6.9139zm9.1153-5.1153c2.9165-2.9165 2.4584-5.2847-1.0223-5.2847-2.6972 0-7.0263 3.8241-7.0263 6.2066 0 2.7165 4.9807 2.146 8.0486-0.92195zm94.618 23.861c0-1.9234-8.0825-5.3166-11.652-4.892-5.9728 0.71041-4.8769 3.3583 1.9263 4.6544 8.0733 1.538 9.7261 1.5784 9.7261 0.23767zm11.048-2.5834c0.90887-1.4527 0.74124-3.3056-0.5411-5.9811-1.546-3.2256-3.759-4.5071-13.182-7.6337-6.2284-2.0666-11.894-4.3251-12.591-5.0189-0.69666-0.69385-2.1967-1.262-3.3333-1.2626-1.1367-5.7e-4 -5.8167-1.7751-10.4-3.9434s-8.3333-3.6921-8.3333-3.3862c0 0.30585-4.05-1.4472-9-3.8958s-9.9-4.8547-11-5.3471c-7.3359-3.2835-27.678-15.528-29.929-18.014-5.3226-5.8814-0.55922-4.9114 13.262 2.7007 16.78 9.2417 38.124 19.231 57.068 26.709l13.068 5.1582 4.0439-2.9898c8.1795-6.0474 23.79-2.2213 25.943 6.3586 0.43777 1.7442 1.7892 3.3984 3.0032 3.676 3.3932 0.77588 9.5406-2.7973 9.5406-5.5455 0-4.817-9.4463-14.694-14.125-14.768-6.3267-0.10054-38.76-14.318-55.875-24.493-1.4667-0.87196-5.6667-3.3486-9.3333-5.5036-22.822-13.413-33.304-22.048-26.765-22.048 1.0461 0 10.496 5.1971 21 11.549 10.504 6.352 25.607 15.149 33.563 19.549l14.465 8.0003 6.2018-2.2227c9.0673-3.2496 15.212-2.8698 20.1 1.2424 2.2563 1.8985 4.1023 4.5985 4.1023 6 0 3.036 2.4249 3.3963 3.527 0.52419 2.858-7.4478-12.692-22.118-53.678-50.643-11.665-8.1186-32.815-24.678-42.501-33.278-6.1803-5.487-4.7166-5.5452-33.424 1.3286-24.286 5.8152-26.41 6.1794-35.924 6.1611-9.6603-0.0185-14.1-1.5558-17.696-6.1276-5.9555-7.5712 1.8234-15.79 25.867-27.328 9.4395-4.53 24.887-12.057 34.328-16.727l17.165-8.4902-7.8321-3.9158c-4.3076-2.1537-13.77-6.5039-21.028-9.6672l-13.196-5.7514-4.1372 4.6408c-11.264 12.636-28.032 33.597-36.652 45.822-7.836 11.112-23.371 34.388-24.028 36-0.29861 0.73333-2.0832 3.7333-3.9658 6.6667-3.8877 6.0576-3.9137 6.1036-13.263 23.49-3.7924 7.0529-6.8953 13.234-6.8953 13.735s2.1522 1.8104 4.7826 2.9095l4.7826 1.9983 7.7318-8.4379c7.7-8.4032 19.248-15.695 24.856-15.695 6.6023 0 10.637 2.6772 13.124 8.7077 2.2966 5.5691 2.7864 5.959 7.4875 5.959 6.2054 0 12.655 4.9933 13.927 10.782 0.77663 3.536 1.3322 3.9498 4.4314 3.301 4.3997-0.92112 13.425 2.1278 15.763 5.325 0.96079 1.314 2.1261 4.4104 2.5896 6.8809 0.57381 3.0586 1.5364 4.4248 3.017 4.2815 8.8481-0.85622 15.562 3.3708 17.033 10.723 0.46841 2.342 1.6482 4.0402 2.8069 4.0402 1.0994 0 6.8744 2.1724 12.833 4.8277 22.039 9.8202 26.912 11.854 36.417 15.202 6.7225 2.3675 7.0529 2.3657 11.822-0.0659 3.2951-1.6799 6.2784-2.2328 9.0842-1.6835 5.0106 0.98102 10.078 4.3828 10.136 6.8043 0.059 2.4642 8.0826 1.4862 9.7564-1.1892zm-128.37-58.867c-5.1066-3.4598-6.6163-6.3613-3.3099-6.3613 1.3392 0 1.9747 0.72713 1.5662 1.7918-0.4817 1.2553 0.19855 1.6224 2.2718 1.2261 3.4548-0.66042 7.2793 3.0332 5.246 5.0665-0.85085 0.85084-2.8597 0.25133-5.774-1.7232zm17.804-23.592c-6.8719-4.1903-7.7572-7.8816-1.5144-6.3148 3.9037 0.97976 9.3447 5.9661 8.3198 7.6245-1.0944 1.7707-2.0576 1.5853-6.8054-1.3097zm21.876-27.993c-2.3944-2.1394-3.8615-4.3818-3.2602-4.983 1.4809-1.4809 10.797 4.05 11.336 6.7304 0.68162 3.3875-3.2909 2.528-8.0758-1.7473zm-55.982 98.575c13.424-6.0926 29.781-25.231 27.556-32.241-1.2108-3.8147-7.9203-6.3149-13.544-5.0466-2.5283 0.57021-4.6993 1.2392-4.8246 1.4867-5.2758 10.425-21.052 27.186-24.384 25.908-0.99645-0.38237-1.7237-0.26682-1.616 0.25679 0.10763 0.52361-0.30004 2.0966-0.90594 3.4955-0.83567 1.9294-0.22506 3.2974 2.5293 5.6667 4.3919 3.7778 7.6844 3.8807 15.189 0.47471zm10.845-20.134c-2.0339-2.0339-2.5565-3.7374-1.9432-6.3333 1.5758-6.6691 9.7963-10.614 13.792-6.6178 2.7017 2.7017 1.8965 9.6567-1.4859 12.834-3.8723 3.6378-6.8088 3.671-10.363 0.11687zm8.687-4.6464c2.7099-2.7099 2.6693-5.3992-0.0976-6.4609-2.7077-1.0391-7.1405 2.7454-7.1405 6.0961 0 3.0659 4.3193 3.2836 7.2381 0.36478zm135.48 19.374c-3.4771-2.972-5.9449-3.9408-10-3.9254-4.9943 0.0189-10.126 1.8108-8.6784 3.0303 1.4548 1.2254 15.613 4.7384 19.295 4.7876l4 0.0534zm-173.7-7.3767c6.0619-2.4794 18.448-14.533 21.771-21.187 3.7425-7.4937 2.9885-12.553-2.4112-16.179-6.7527-4.5348-11.967-2.7951-16.489 5.5013-1.987 3.6459-7.274 10.623-11.749 15.506-4.4748 4.8824-8.1361 10.089-8.1361 11.57 0 1.4811 1.5943 3.9469 3.5428 5.4797 3.6511 2.8719 4.9196 2.8069 13.471-0.69083zm7.8592-21.674c-3.1338-3.4628-2.7339-7.8223 1.0661-11.622 3.8264-3.8264 5.6965-4.0461 9.8253-1.1541 2.3311 1.6328 2.8799 3.0375 2.3932 6.1257-0.34734 2.2039-0.82495 4.1495-1.0614 4.3235-7.3656 5.4219-9.1202 5.7559-12.223 2.3272zm8.2382-5.6412c3.3654-3.1353 2.7459-5.2538-1.5361-5.2538-3.1093 0-6.8739 4.5656-5.5419 6.7209 1.2614 2.041 3.8994 1.4943 7.078-1.467zm-31.201 9.1561c9.8114-11.462 16.815-23.159 17.013-28.412 0.47456-12.623-14.898-10.824-29.301 3.4289-13.563 13.421-15.091 27.797-3.15 29.632 9.2968 1.4284 10.563 1.0471 15.439-4.6485zm0.42289-18.517c-3.1451-1.8318-3.0802-9.4707 0.10498-12.353 2.5485-2.3064 7.7672-2.8829 10.48-1.1578 0.87191 0.55439 1.879 2.6279 2.2381 4.6079 0.51001 2.8125-0.22367 4.3374-3.3543 6.9716-4.368 3.6754-5.9285 3.9938-9.4691 1.9316zm7.0876-5.2734c1.4185-0.75914 2.579-2.5591 2.579-4 0-3.5898-4.6214-3.4203-7.2021 0.2642-3.1831 4.5446-0.67502 6.5713 4.6231 3.7358zm189.25 26.81c0-0.68011-1.5809-2.4801-3.5131-4-3.5104-2.7613-9.6065-3.4471-14.283-1.6069-2.0176 0.79396-2.138 1.2372-0.66667 2.4528 3.9192 3.2378 18.463 5.7224 18.463 3.1542zm21.333-12.768c1.1-0.25202 2.1177-0.50414 2.2615-0.56024 0.66418-0.25914-4.3783-15.324-8.96-26.769-6.4613-16.14-15.486-35.224-22.699-48-7.0212-12.436-26.506-42.187-30.565-46.667-1.6607-1.8333-4.4761-5.615-6.2565-8.4038-2.5789-4.0396-3.8002-4.8917-6.0074-4.1912-1.5237 0.4836-3.4462 1.0142-4.2722 1.1792-13.326 2.6611-30.041 9.477-65.028 26.517-29.557 14.395-30.225 14.81-31.691 19.704-2.7283 9.1063-14.763 15.348-19.827 10.284-2.1914-2.1914-3.8402-0.12784-2.1109 2.6417 5.2468 8.4026 13.902 7.6414 69.155-6.0819 26.972-6.6992 25.345-6.6053 30.312-1.7492 5.436 5.3147 16.146 8.5466 25.859 7.8033 5.9282-0.4537 7.1944-0.18843 6.8803 1.4414-0.55495 2.8801-7.2871 4.4283-15.483 3.5608-8.6528-0.91588-15.767-3.7599-20.324-8.1245-2.7548-2.6386-4.2627-3.1101-7.7299-2.4166-2.9786 0.59572-4.1807 1.5197-3.8965 2.9951 0.33236 1.7258 30.219 25.242 40.464 31.839 22.292 14.354 49.067 35.06 55.007 42.539 3.6705 4.6216 4.7177 4.7943 14.911 2.4588zm24.41-3.5321c5.2746-0.84508 9.7698-1.6747 9.9892-1.8435 0.89625-0.68952-14.502-45.13-21.008-60.629-12.241-29.164-33.161-65.516-47.079-81.807l-4.3988-5.1489-11.957 6.2953c-6.5763 3.4624-12.801 7.0944-13.832 8.0712-1.5934 1.5095-0.38221 3.6382 8.072 14.187 5.4707 6.8261 12.071 15.711 14.667 19.744 2.5963 4.0333 7.2296 11.233 10.296 16 13.431 20.876 37.506 75.119 37.506 84.502 0 2.6427 4.2332 2.7925 17.743 0.62797zm-68.279-121.48c-1.7614-0.90586-3.7997-2.6041-4.5297-3.774-1.7228-2.7609-0.21571-8.6853 2.4718-9.7165 2.2056-0.84636 9.9099 2.5047 11.563 5.0295 1.3118 2.0033-0.0968 6.4403-2.6924 8.4806-2.5906 2.0364-2.8165 2.0357-6.813-0.01966zm-206.29 99.686c8.7283-17.074 13.682-25.823 16.292-28.772 1.0247-1.1577 1.8631-2.5271 1.8631-3.043 0-1.0049 8.2054-13.944 19.142-30.185 12.191-18.105 27.278-37.058 40.113-50.393l8.0782-8.3932-3.2195-2.4448c-1.7707-1.3446-7.3869-4.6957-12.48-7.4468l-9.2609-5.002-5.2974 5.84c-9.5663 10.546-20.36 23.21-23.075 27.073-1.4667 2.0868-4.4949 6.263-6.7294 9.2806-9.5568 12.906-30.36 44.382-35.39 53.547-3.0003 5.4668-5.9821 9.9396-6.6261 9.9396-0.64404 0-0.82268 0.90764-0.39699 2.017 0.4257 1.1093 0.16022 2.7593-0.58994 3.6667-1.7674 2.1377-12.268 28.495-12.268 30.793 0 0.96627 3.15 3.3123 7 5.2133 3.85 1.9011 8.185 4.3391 9.6334 5.4179 3.2695 2.4352 3.1258 2.6213 13.211-17.108zm55.755-108.93c-2.502-2.502-1.8836-7.3652 1.3154-10.346 2.5065-2.3351 3.284-2.4713 5.544-0.97079 3.8997 2.5893 5.0201 6.781 2.6985 10.096-2.172 3.1009-7.054 3.7244-9.5578 1.2207zm269.73 124.18c23.107-4.1215 22.482-3.8392 23.614-10.674 5.2204-31.539 3.426-83.451-3.7583-108.72-1.0656-3.7488-2.1712-8.0295-2.4569-9.5126-1.2203-6.3365-8.9344-23.247-15.894-34.842-4.1277-6.877-7.5049-12.77-7.5049-13.095 0-0.32535-0.78105-1.3726-1.7357-2.3272-1.4253-1.4253-3.5113-1.287-11.667 0.77393-25.196 6.3672-45.22 13-63.931 21.177-7.9441 3.4717-12.957 5.4907-14.667 5.9072-0.36667 0.08932-2.0291 0.91889-3.6942 1.8435-1.6652 0.92459-3.5469 1.3601-4.1818 0.96775-2.1193-1.3098-2.8602 5.1735-0.76989 6.737 1.0886 0.81418 2.0124 2.0142 2.053 2.6667 0.0406 0.65249 1.7637 2.5183 3.8291 4.1462 3.6188 2.8523 3.9526 2.8824 9.1828 0.8279 10.103-3.9686 13.377 0.68003 3.4693 4.9268l-6.1117 2.6198 3.9052 4.9995c2.1478 2.7497 5.5996 7.9995 7.6706 11.666 2.071 3.6667 4.5132 7.5667 5.4271 8.6667s5.839 10.4 10.945 20.667c12.857 25.853 21.912 49.42 28.371 73.833l2.954 11.167 10.142-0.90063c5.5783-0.49534 16.742-2.0778 24.809-3.5167zm-64.072-141.37c-1.3073-2.1152 0.47508-3.3466 9.2954-6.4217 5.8741-2.0479 8.3442-2.3741 9.6667-1.2766 2.3096 1.9168 2.2708 3.8144-0.078 3.8144-1.0199 0-4.4699 1.1868-7.6667 2.6374-6.5817 2.9865-9.9132 3.3567-11.217 1.2464zm38.27-13.644c-1.6766-2.0202 1.2921-3.8654 11.138-6.9227 4.359-1.3536 5.6414-1.3309 7 0.12351 2.4126 2.5827 2.2793 2.7237-4.67 4.9341-11.577 3.6824-11.92 3.73-13.468 1.8651zm-330.98 135.53c7.7772-21.685 25.798-54.023 42.917-77.012 24.825-33.339 29.588-39.346 30.668-38.678 0.64427 0.39818 0.86865-0.06499 0.49862-1.0293-0.37003-0.96428-2.6132-2.5828-4.9847-3.5967-4.8359-2.0675-8.9786-5.2951-8.9786-6.9952 0-2.1127 4.4226-1.1324 10.221 2.2655 5.5385 3.2458 5.9176 3.2938 8.7838 1.1115 1.6475-1.2544 4.3288-3.9057 5.9585-5.8917l2.963-3.611-13.63-7.723c-20.857-11.818-48.614-28.302-58.669-34.841-5.1333-3.3384-9.7186-5.459-10.611-4.9074-9.6984 5.9939-34.237 34.978-60.792 71.804-6.4431 8.9353-23.13 35.774-23.627 38-0.08178 0.36666-2.1135 4.8667-4.515 10-4.3571 9.3136-9.416 22.704-9.416 24.922 0 0.95014 87.033 44.8 89.345 45.015 0.37322 0.0347 2.1141-3.9396 3.8686-8.8318zm35.119-137.75c-8.3236-3.8521-10.719-6.6877-5.6486-6.6877 1.4766 0 3.7266 0.58486 5 1.2997 1.2734 0.71484 4.5652 2.1842 7.3152 3.2653 2.7838 1.0944 5 2.8822 5 4.0336 0 2.8716-2.0625 2.5338-11.667-1.9109zm-32.654-16.413c-5.6551-3.335-7.1472-8.4337-2.0131-6.8788 5.1245 1.5519 11.667 6.0641 11.667 8.0466 0 2.7063-3.8804 2.2369-9.6536-1.1678zm98.568 101.49c4.0769-3.8301 4.1242-6.9432 0.0859-5.6626-3.3973 1.0773-13 6.9215-13 7.9118 0 0.35747 2.2113 0.64994 4.9141 0.64994 3.2103 0 5.984-1.0051 8-2.8991z"
     id="path1"
     style="fill:#1b4079;fill-opacity:1" />
</svg>
